<?xml version="1.0" standalone="no"?>
<!DOCTYPE svg PUBLIC "-//W3C//DTD SVG 20010904//EN" "http://www.w3.org/TR/2001/REC-SVG-20010904/DTD/svg10.dtd">
<!-- Created using Krita: https://krita.org -->
<svg xmlns="http://www.w3.org/2000/svg" 
    xmlns:xlink="http://www.w3.org/1999/xlink"
    xmlns:krita="http://krita.org/namespaces/svg/krita"
    xmlns:sodipodi="http://sodipodi.sourceforge.net/DTD/sodipodi-0.dtd"
    width="205.708pt"
    height="205.708pt"
    viewBox="0 0 205.708 205.708">
<defs/>
<path id="shape0" transform="translate(30.3464899993125, 11.8796123691538)" fill="#ffffff" fill-rule="evenodd" stroke="#ffffff" stroke-width="1.02853794522179" stroke-linecap="square" stroke-linejoin="bevel" d="M72.2502 117.562C72.2502 99.087 73.3432 79.6199 74.1015 60.6323C74.6182 53.8269 74.8899 47.466 78.4214 42.7358C80.2394 40.3006 83.5286 40.2926 85.2192 40.6018C85.2192 39.4941 82.1329 38.1611 81.3463 37.3745C75.4065 39.4059 73.0458 45.4107 72.5073 48.907C71.6845 43.7275 68.351 39.3416 64.3047 37.5673C68.297 36.4874 71.5816 31.6586 72.5073 26.8834C74.8022 32.6496 75.9154 35.1514 81.3206 37.3938C82.0607 38.0883 84.9825 38.8643 85.1325 40.4731C112.874 47.3429 133.139 71.839 133.139 101.898C133.139 137.485 104.509 166.335 69.1924 166.335C33.8754 166.335 5.24528 137.485 5.24528 101.898C5.24528 79.2367 15.7294 59.6621 33.2815 48.1743C12.5134 60.6108 1.42109e-14 82.4867 0 108.048C0 147.129 32.3936 178.811 72.353 178.811C112.312 178.811 144.706 147.129 144.706 108.048C144.706 72.2825 120.225 39.4873 82.7321 34.5212C75.4109 32.0279 72.5323 24.1489 72.5073 0C71.8902 39.0434 63.945 35.0718 51.4223 38.7245C65.6384 36.7188 69.2907 46.6344 70.0902 51.0669C70.6913 54.3969 72.8823 113.106 72.2502 117.562M83.6669 37.3359" sodipodi:nodetypes="ccccccccccccccccccccccc"/>
</svg>
